<svg
    width="1456"
    height="614"
    viewBox="0 0 1456 614"
    fill="none"
    xmlns="http://www.w3.org/2000/svg"
>
    <g filter="url(#filter0_d_47_2)">
        <path
            d="M145.557 117.324C145.557 124.985 143.798 132.018 140.282 138.424C136.765 144.704 131.364 149.79 124.079 153.684C116.795 157.578 107.752 159.524 96.9503 159.524H76.9803V207H44.7646V74.7459H96.9503C107.501 74.7459 116.418 76.5671 123.703 80.2094C130.987 83.8518 136.451 88.8757 140.093 95.2811C143.735 101.687 145.557 109.034 145.557 117.324ZM94.5012 133.902C100.655 133.902 105.24 132.458 108.254 129.569C111.268 126.681 112.776 122.599 112.776 117.324C112.776 112.048 111.268 107.967 108.254 105.078C105.24 102.189 100.655 100.745 94.5012 100.745H76.9803V133.902H94.5012ZM194.544 119.396C198.312 113.618 203.022 109.097 208.674 105.831C214.326 102.44 220.606 100.745 227.513 100.745V134.844H218.659C210.621 134.844 204.592 136.603 200.573 140.119C196.554 143.511 194.544 149.539 194.544 158.206V207H162.328V101.875H194.544V119.396ZM259.114 90.948C253.462 90.948 248.815 89.3153 245.173 86.0497C241.656 82.6586 239.898 78.5139 239.898 73.6156C239.898 68.5917 241.656 64.4469 245.173 61.1814C248.815 57.7903 253.462 56.0947 259.114 56.0947C264.64 56.0947 269.162 57.7903 272.679 61.1814C276.321 64.4469 278.142 68.5917 278.142 73.6156C278.142 78.5139 276.321 82.6586 272.679 86.0497C269.162 89.3153 264.64 90.948 259.114 90.948ZM275.128 101.875V207H242.912V101.875H275.128ZM346.327 208.507C336.028 208.507 326.734 206.309 318.444 201.913C310.28 197.518 303.812 191.238 299.039 183.074C294.392 174.91 292.069 165.365 292.069 154.438C292.069 143.636 294.455 134.154 299.228 125.99C304 117.7 310.531 111.358 318.821 106.962C327.11 102.566 336.405 100.368 346.704 100.368C357.003 100.368 366.297 102.566 374.586 106.962C382.876 111.358 389.407 117.7 394.179 125.99C398.952 134.154 401.339 143.636 401.339 154.438C401.339 165.239 398.889 174.784 393.991 183.074C389.218 191.238 382.624 197.518 374.209 201.913C365.92 206.309 356.626 208.507 346.327 208.507ZM346.327 180.625C352.481 180.625 357.693 178.364 361.964 173.842C366.36 169.321 368.558 162.853 368.558 154.438C368.558 146.023 366.422 139.554 362.152 135.033C358.007 130.511 352.858 128.251 346.704 128.251C340.424 128.251 335.211 130.511 331.067 135.033C326.922 139.429 324.85 145.897 324.85 154.438C324.85 162.853 326.859 169.321 330.878 173.842C335.023 178.364 340.172 180.625 346.327 180.625ZM450.645 119.396C454.413 113.618 459.123 109.097 464.775 105.831C470.427 102.44 476.707 100.745 483.615 100.745V134.844H474.76C466.722 134.844 460.693 136.603 456.674 140.119C452.655 143.511 450.645 149.539 450.645 158.206V207H418.43V101.875H450.645V119.396ZM515.215 90.948C509.563 90.948 504.916 89.3153 501.274 86.0497C497.757 82.6586 495.999 78.5139 495.999 73.6156C495.999 68.5917 497.757 64.4469 501.274 61.1814C504.916 57.7903 509.563 56.0947 515.215 56.0947C520.742 56.0947 525.263 57.7903 528.78 61.1814C532.422 64.4469 534.243 68.5917 534.243 73.6156C534.243 78.5139 532.422 82.6586 528.78 86.0497C525.263 89.3153 520.742 90.948 515.215 90.948ZM531.229 101.875V207H499.013V101.875H531.229ZM613.167 179.683V207H596.776C585.096 207 575.99 204.174 569.459 198.522C562.928 192.745 559.662 183.388 559.662 170.451V128.627H546.851V101.875H559.662V76.2531H591.878V101.875H612.978V128.627H591.878V170.828C591.878 173.968 592.631 176.229 594.139 177.61C595.646 178.992 598.158 179.683 601.674 179.683H613.167ZM738.497 101.875L672.559 256.925H637.894L662.008 203.421L619.242 101.875H655.226L679.529 167.625L703.644 101.875H738.497ZM1405.1 208.507C1399.45 208.507 1394.8 206.875 1391.16 203.609C1387.65 200.218 1385.89 196.073 1385.89 191.175C1385.89 186.151 1387.65 181.943 1391.16 178.552C1394.8 175.161 1399.45 173.466 1405.1 173.466C1410.63 173.466 1415.15 175.161 1418.67 178.552C1422.31 181.943 1424.13 186.151 1424.13 191.175C1424.13 196.073 1422.31 200.218 1418.67 203.609C1415.15 206.875 1410.63 208.507 1405.1 208.507Z"
            fill="white"></path>
        <path
            d="M799.695 74.7459C813.637 74.7459 825.82 77.5091 836.244 83.0354C846.669 88.5617 854.707 96.3487 860.359 106.397C866.136 116.319 869.025 127.811 869.025 140.873C869.025 153.81 866.136 165.302 860.359 175.35C854.707 185.397 846.606 193.184 836.056 198.711C825.631 204.237 813.511 207 799.695 207H750.147V74.7459H799.695ZM797.623 179.118C809.806 179.118 819.288 175.789 826.071 169.133C832.853 162.476 836.244 153.056 836.244 140.873C836.244 128.69 832.853 119.207 826.071 112.425C819.288 105.643 809.806 102.252 797.623 102.252H782.363V179.118H797.623ZM986.125 152.742C986.125 155.756 985.937 158.896 985.56 162.162H912.651C913.153 168.693 915.225 173.717 918.868 177.234C922.636 180.625 927.22 182.32 932.621 182.32C940.659 182.32 946.248 178.929 949.388 172.147H983.676C981.918 179.055 978.715 185.272 974.068 190.798C969.546 196.324 963.832 200.658 956.924 203.797C950.016 206.937 942.292 208.507 933.751 208.507C923.452 208.507 914.283 206.309 906.245 201.913C898.207 197.518 891.927 191.238 887.406 183.074C882.884 174.91 880.623 165.365 880.623 154.438C880.623 143.511 882.821 133.965 887.217 125.801C891.739 117.638 898.019 111.358 906.057 106.962C914.095 102.566 923.326 100.368 933.751 100.368C943.924 100.368 952.967 102.503 960.88 106.773C968.793 111.044 974.947 117.135 979.343 125.048C983.864 132.96 986.125 142.192 986.125 152.742ZM953.156 144.264C953.156 138.738 951.272 134.342 947.504 131.076C943.736 127.811 939.026 126.178 933.374 126.178C927.974 126.178 923.389 127.748 919.621 130.888C915.979 134.028 913.718 138.487 912.839 144.264H953.156ZM1067.18 100.745C1079.48 100.745 1089.28 104.764 1096.57 112.802C1103.98 120.715 1107.68 131.642 1107.68 145.583V207H1075.65V149.916C1075.65 142.883 1073.83 137.419 1070.19 133.526C1066.55 129.632 1061.65 127.685 1055.49 127.685C1049.34 127.685 1044.44 129.632 1040.8 133.526C1037.16 137.419 1035.34 142.883 1035.34 149.916V207H1003.12V101.875H1035.34V115.816C1038.6 111.169 1043 107.527 1048.52 104.889C1054.05 102.126 1060.27 100.745 1067.18 100.745ZM1188.66 179.683V207H1172.27C1160.59 207 1151.48 204.174 1144.95 198.522C1138.42 192.745 1135.15 183.388 1135.15 170.451V128.627H1122.34V101.875H1135.15V76.2531H1167.37V101.875H1188.47V128.627H1167.37V170.828C1167.37 173.968 1168.12 176.229 1169.63 177.61C1171.14 178.992 1173.65 179.683 1177.17 179.683H1188.66ZM1200.2 154.249C1200.2 143.448 1202.21 133.965 1206.23 125.801C1210.37 117.638 1215.96 111.358 1222.99 106.962C1230.03 102.566 1237.88 100.368 1246.54 100.368C1253.95 100.368 1260.42 101.875 1265.95 104.889C1271.6 107.904 1275.93 111.86 1278.95 116.758V101.875H1311.16V207H1278.95V192.117C1275.81 197.015 1271.41 200.971 1265.76 203.986C1260.23 207 1253.77 208.507 1246.35 208.507C1237.81 208.507 1230.03 206.309 1222.99 201.913C1215.96 197.392 1210.37 191.049 1206.23 182.885C1202.21 174.596 1200.2 165.051 1200.2 154.249ZM1278.95 154.438C1278.95 146.399 1276.69 140.057 1272.17 135.41C1267.77 130.762 1262.37 128.439 1255.96 128.439C1249.56 128.439 1244.09 130.762 1239.57 135.41C1235.18 139.931 1232.98 146.211 1232.98 154.249C1232.98 162.287 1235.18 168.693 1239.57 173.466C1244.09 178.113 1249.56 180.436 1255.96 180.436C1262.37 180.436 1267.77 178.113 1272.17 173.466C1276.69 168.819 1278.95 162.476 1278.95 154.438ZM1366.69 67.5869V207H1334.47V67.5869H1366.69Z"
            fill="white"></path>
    </g>
    <path
        d="M742.41 471.618C362.135 471.618 314.904 262.63 470.465 331.695C626.026 400.761 849.566 396.616 1004.34 341.103C1159.11 285.589 1122.69 471.618 742.41 471.618Z"
        fill="white"></path>
    <path
        d="M1108.58 341.102C1115.47 283.799 1077.41 302.12 1048.28 308.777C1019.16 315.434 1102.6 274.772 1119.24 291.415C1135.89 308.057 1101.7 398.406 1108.58 341.102Z"
        fill="white"></path>
    <path
        d="M396.501 298.747C338.891 295.235 359.415 332.157 367.77 360.84C376.125 389.523 330.636 308.611 346.273 291.021C361.909 273.431 454.11 302.26 396.501 298.747Z"
        fill="white"></path>
    <defs>
        <filter
            id="filter0_d_47_2"
            x="13.0589"
            y="35.4171"
            width="1442.78"
            height="264.242"
            filterUnits="userSpaceOnUse"
            color-interpolation-filters="sRGB"
        >
            <feFlood flood-opacity="0" result="BackgroundImageFix"></feFlood>
            <feColorMatrix
                in="SourceAlpha"
                type="matrix"
                values="0 0 0 0 0 0 0 0 0 0 0 0 0 0 0 0 0 0 127 0"
                result="hardAlpha"></feColorMatrix>
            <feOffset dy="11.0281"></feOffset>
            <feGaussianBlur stdDeviation="15.8529"></feGaussianBlur>
            <feComposite in2="hardAlpha" operator="out"></feComposite>
            <feColorMatrix
                type="matrix"
                values="0 0 0 0 0 0 0 0 0 0 0 0 0 0 0 0 0 0 0.11 0"
            ></feColorMatrix>
            <feBlend
                mode="normal"
                in2="BackgroundImageFix"
                result="effect1_dropShadow_47_2"></feBlend>
            <feBlend
                mode="normal"
                in="SourceGraphic"
                in2="effect1_dropShadow_47_2"
                result="shape"></feBlend>
        </filter>
    </defs>
</svg>
